<svg width="17" height="11" viewBox="0 0 17 11" fill="none" xmlns="http://www.w3.org/2000/svg">
<path id="Mobile Signal" d="M2 6.66699C2.55226 6.66699 2.99996 7.11474 3 7.66699V9.66699C3 10.2193 2.55228 10.667 2 10.667H1C0.447818 10.6669 0 10.2192 0 9.66699V7.66699C4.17306e-05 7.11482 0.447844 6.66711 1 6.66699H2ZM6.66699 4.66699C7.21913 4.66714 7.66695 5.11483 7.66699 5.66699V9.66699C7.66699 10.2192 7.21916 10.6668 6.66699 10.667H5.66699C5.11471 10.667 4.66699 10.2193 4.66699 9.66699V5.66699C4.66703 5.11474 5.11473 4.66699 5.66699 4.66699H6.66699ZM16 0C16.5523 0 17 0.44775 17 1V9.66699C16.9999 10.2192 16.5522 10.667 16 10.667H15C14.4479 10.6669 14.0001 10.2191 14 9.66699V1C14 0.447825 14.4478 0.000120571 15 0H16ZM11.334 2.33301C11.8861 2.33315 12.3339 2.78085 12.334 3.33301V9.66602C12.334 10.2182 11.8861 10.6659 11.334 10.666H10.334C9.7817 10.666 9.33398 10.2183 9.33398 9.66602V3.33301C9.33403 2.78076 9.78172 2.33301 10.334 2.33301H11.334Z" fill="#3B3F2B"/>
</svg>
