<svg width="25" height="12" viewBox="0 0 25 12" fill="none" xmlns="http://www.w3.org/2000/svg">
<g id="Battery">
<path id="Rectangle" opacity="0.35" d="M2.74066 0.513811H19.867C21.0967 0.513811 22.0939 1.51099 22.0939 2.74066V8.9064C22.0937 10.1359 21.0966 11.1322 19.867 11.1322H2.74066C1.5111 11.1322 0.513992 10.1359 0.513811 8.9064V2.74066L0.52485 2.51286C0.638766 1.39002 1.58777 0.513811 2.74066 0.513811Z" stroke="#3B3F2B"/>
<path id="Combined Shape" opacity="0.4" d="M23.6353 3.76828V7.87877C24.4623 7.53064 25 6.72078 25 5.82353C25 4.92628 24.4623 4.11642 23.6353 3.76828Z" fill="#3B3F2B"/>
<path id="Rectangle_2" d="M2.05524 3.42541C2.05524 2.66869 2.66869 2.05524 3.42541 2.05524H19.1823C19.939 2.05524 20.5524 2.66869 20.5524 3.42541V8.22098C20.5524 8.9777 19.939 9.59114 19.1823 9.59114H3.42541C2.66869 9.59114 2.05524 8.9777 2.05524 8.22098V3.42541Z" fill="#3B3F2B"/>
</g>
</svg>
