<svg width="16" height="11" viewBox="0 0 16 11" fill="none" xmlns="http://www.w3.org/2000/svg">
<path id="Wifi" d="M5.44505 8.42738C6.72469 7.34514 8.59848 7.34508 9.87809 8.42738C9.94232 8.48559 9.98017 8.568 9.98194 8.65467C9.98358 8.74128 9.94875 8.82518 9.88691 8.88587L7.88347 10.9079C7.82476 10.9672 7.74451 11 7.66108 11C7.57764 11 7.49738 10.9673 7.4387 10.9079L5.43526 8.88587C5.37335 8.82503 5.33937 8.74047 5.34121 8.65369C5.34316 8.56707 5.38074 8.48545 5.44505 8.42738ZM2.77053 5.72935C5.52748 3.16486 9.79762 3.16488 12.5546 5.72935C12.6167 5.78939 12.6515 5.87221 12.6525 5.9586C12.6534 6.04492 12.6202 6.12845 12.5595 6.1898L11.4005 7.36051C11.2811 7.48002 11.088 7.48274 10.9655 7.36639C10.0602 6.54667 8.88238 6.09274 7.66108 6.09281C6.4407 6.0934 5.26422 6.54727 4.35957 7.36639C4.23712 7.48274 4.04396 7.48003 3.92459 7.36051L2.76662 6.1898C2.7057 6.12863 2.67188 6.04589 2.67257 5.95958C2.67338 5.87301 2.70826 5.78949 2.77053 5.72935ZM0.0969949 3.03916C4.32549 -1.01305 10.9967 -1.01305 15.2252 3.03916C15.2863 3.09929 15.3206 3.18168 15.3212 3.26742C15.3217 3.35312 15.2884 3.43578 15.2281 3.49667L14.0682 4.66738C13.9487 4.78748 13.7545 4.78857 13.6332 4.67032C12.0222 3.13884 9.8839 2.2849 7.66108 2.28481C5.43817 2.28488 3.30013 3.13882 1.68897 4.67032C1.56773 4.78875 1.3734 4.78767 1.25399 4.66738L0.0940559 3.49667C0.0336921 3.43572 -0.000557499 3.35321 6.86628e-06 3.26742C0.000630164 3.18165 0.0357944 3.09926 0.0969949 3.03916Z" fill="#3B3F2B"/>
</svg>
